<svg xmlns="http://www.w3.org/2000/svg" version="1.1" xmlns:xlink="http://www.w3.org/1999/xlink" xmlns:svgjs="http://svgjs.dev/svgjs" width="128" height="128" viewBox="0 0 128 128"><g transform="matrix(0.8046875,0,0,0.8046875,12.221578124999994,14.50311618005614)"><svg viewBox="0 0 96 92" data-background-color="#ffffff" preserveAspectRatio="xMidYMid meet" height="122" width="128" xmlns="http://www.w3.org/2000/svg" xmlns:xlink="http://www.w3.org/1999/xlink"><g id="tight-bounds" transform="matrix(1,0,0,1,0.25950000000000273,0.38511092341707354)"><svg viewBox="0 0 95.481 91.22977815316585" height="91.22977815316585" width="95.481"><g><svg viewBox="0 0 95.481 91.22977815316585" height="91.22977815316585" width="95.481"><g><svg viewBox="0 0 95.481 91.22977815316585" height="91.22977815316585" width="95.481"><g id="textblocktransform"><svg viewBox="0 0 95.481 91.22977815316585" height="91.22977815316585" width="95.481" id="textblock"><g><svg viewBox="0 0 95.481 91.22977815316585" height="91.22977815316585" width="95.481"><g><svg viewBox="0 0 95.481 91.22977815316585" height="91.22977815316585" width="95.481"><g><svg xmlns="http://www.w3.org/2000/svg" xmlns:xlink="http://www.w3.org/1999/xlink" version="1.1" x="0" y="0" viewBox="7.370361441578545 9.285139936448997 86.0171945286049 82.18734171408278" enable-background="new 0 0 100 100" xml:space="preserve" height="91.22977815316585" width="95.481" class="icon-icon-0" data-fill-palette-color="accent" id="icon-0"></svg></g></svg></g></svg></g></svg></g></svg></g><g></g></svg></g><defs></defs><mask id="f1884ea9-aa1d-4a82-9481-81dcb8409017"><g id="SvgjsG9583"><svg viewBox="0 0 95.481 91.22977815316585" height="91.22977815316585" width="95.481"><g><svg viewBox="0 0 95.481 91.22977815316585" height="91.22977815316585" width="95.481"><g><svg viewBox="0 0 95.481 91.22977815316585" height="91.22977815316585" width="95.481"><g id="SvgjsG9582"><svg viewBox="0 0 95.481 91.22977815316585" height="91.22977815316585" width="95.481" id="SvgjsSvg9581"><g><svg viewBox="0 0 95.481 91.22977815316585" height="91.22977815316585" width="95.481"><g><svg viewBox="0 0 95.481 91.22977815316585" height="91.22977815316585" width="95.481"><g><svg xmlns="http://www.w3.org/2000/svg" xmlns:xlink="http://www.w3.org/1999/xlink" version="1.1" x="0" y="0" viewBox="7.370361441578545 9.285139936448997 86.0171945286049 82.18734171408278" enable-background="new 0 0 100 100" xml:space="preserve" height="91.22977815316585" width="95.481" class="icon-icon-0" data-fill-palette-color="accent" id="SvgjsSvg9580"><path d="M43.387 41.541C43.001 41.598 42.488 41.395 42.245 41.089L40.448 38.821C40.206 38.516 40.125 37.969 40.269 37.607L41.335 34.915C41.479 34.553 41.912 34.21 42.297 34.153L45.158 33.731C45.544 33.674 46.057 33.877 46.299 34.183L48.096 36.451C48.338 36.756 48.419 37.303 48.276 37.665L47.21 40.357C47.066 40.719 46.634 41.062 46.248 41.119z" fill="white"></path><path d="M50.333 32.698C49.947 32.755 49.434 32.552 49.192 32.246L47.56 30.187C47.318 29.882 47.237 29.335 47.38 28.973L48.342 26.533C48.485 26.171 48.917 25.827 49.303 25.77L51.902 25.387C52.288 25.33 52.798 25.533 53.043 25.839L54.67 27.897C54.911 28.203 54.992 28.75 54.85 29.112L53.889 31.551C53.745 31.913 53.313 32.257 52.927 32.314z" fill="white"></path><path d="M53.963 43.482C53.577 43.539 53.065 43.336 52.822 43.03L50.773 40.442C50.532 40.136 50.451 39.59 50.591 39.227L51.804 36.163C51.949 35.8 52.378 35.457 52.767 35.399L56.035 34.912C56.421 34.854 56.933 35.058 57.176 35.363L59.225 37.951C59.465 38.257 59.546 38.804 59.405 39.166L58.192 42.237C58.049 42.6 57.617 42.943 57.23 43z" fill="white"></path><path d="M60.855 34.305C60.466 34.362 59.956 34.159 59.71 33.854L58.171 31.912C57.931 31.607 57.851 31.06 57.991 30.698L58.897 28.395C59.043 28.032 59.473 27.689 59.86 27.632L62.313 27.269C62.702 27.212 63.212 27.415 63.458 27.721L65 29.661C65.242 29.966 65.322 30.513 65.182 30.875L64.268 33.179C64.122 33.541 63.69 33.885 63.305 33.942z" fill="white"></path><path d="M68.344 27.115C67.958 27.172 67.446 26.969 67.202 26.663L66.014 25.169C65.772 24.863 65.692 24.317 65.835 23.955L66.54 22.182C66.684 21.82 67.117 21.477 67.503 21.42L69.379 21.142C69.766 21.085 70.277 21.288 70.522 21.593L71.71 23.089C71.953 23.394 72.034 23.94 71.891 24.302L71.19 26.073C71.046 26.435 70.614 26.778 70.229 26.835z" fill="white"></path><path d="M75.709 21.598C75.322 21.655 74.811 21.451 74.566 21.146L73.986 20.412C73.744 20.107 73.663 19.56 73.806 19.198L74.15 18.325C74.294 17.962 74.726 17.619 75.111 17.563L76.039 17.427C76.425 17.371 76.937 17.573 77.182 17.88L77.764 18.612C78.005 18.917 78.086 19.464 77.944 19.826L77.598 20.7C77.454 21.063 77.022 21.406 76.637 21.462z" fill="white"></path><path d="M78.098 30.669C77.712 30.727 77.202 30.524 76.955 30.219L76.282 29.372C76.039 29.067 75.958 28.521 76.101 28.159L76.497 27.156C76.643 26.794 77.073 26.451 77.459 26.395L78.527 26.238C78.915 26.182 79.427 26.385 79.672 26.69L80.346 27.535C80.588 27.84 80.669 28.386 80.528 28.748L80.132 29.747C79.986 30.109 79.557 30.453 79.17 30.51z" fill="white"></path><path d="M84.493 27.956C84.107 28.012 83.596 27.808 83.351 27.502L83.125 27.217C82.886 26.911 82.806 26.364 82.946 26.003L83.082 25.665C83.228 25.303 83.659 24.961 84.045 24.905L84.399 24.853C84.786 24.797 85.296 25.001 85.542 25.306L85.767 25.587C86.007 25.892 86.088 26.439 85.947 26.801L85.812 27.143C85.666 27.506 85.236 27.848 84.849 27.904z" fill="white"></path><path d="M70.947 36.726C70.56 36.783 70.048 36.58 69.804 36.274L68.533 34.669C68.291 34.364 68.21 33.817 68.353 33.455L69.107 31.552C69.253 31.19 69.685 30.847 70.07 30.79L72.092 30.492C72.478 30.435 72.99 30.638 73.234 30.944L74.505 32.549C74.747 32.854 74.828 33.401 74.686 33.763L73.934 35.665C73.789 36.028 73.358 36.371 72.973 36.428z" fill="white"></path><path d="M79.061 39.311C78.675 39.368 78.165 39.165 77.919 38.86L77.068 37.791C76.827 37.485 76.747 36.939 76.89 36.577L77.396 35.304C77.54 34.942 77.972 34.598 78.359 34.541L79.706 34.342C80.092 34.285 80.605 34.488 80.848 34.793L81.702 35.867C81.943 36.172 82.023 36.719 81.881 37.081L81.379 38.349C81.233 38.711 80.802 39.055 80.416 39.112z" fill="white"></path><path d="M86.415 37.749C86.029 37.807 85.516 37.603 85.273 37.298L84.6 36.447C84.358 36.141 84.278 35.594 84.419 35.232L84.816 34.221C84.96 33.859 85.392 33.516 85.777 33.46L86.855 33.303C87.242 33.247 87.752 33.45 87.998 33.756L88.67 34.601C88.912 34.906 88.993 35.452 88.85 35.814L88.452 36.826C88.306 37.188 87.875 37.532 87.487 37.589z" fill="white"></path><path d="M65.908 16.414C65.521 16.471 65.009 16.268 64.765 15.963L64.247 15.314C64.005 15.009 63.924 14.462 64.065 14.1L64.372 13.332C64.518 12.97 64.948 12.626 65.334 12.57L66.146 12.449C66.535 12.392 67.045 12.595 67.292 12.9L67.811 13.548C68.051 13.853 68.132 14.399 67.991 14.761L67.686 15.53C67.54 15.892 67.108 16.236 66.723 16.293z" fill="white"></path><path d="M55.668 14.289C55.282 14.346 54.77 14.143 54.527 13.837L53.681 12.769C53.439 12.463 53.357 11.916 53.497 11.554L53.994 10.295C54.14 9.933 54.567 9.589 54.955 9.532L56.309 9.332C56.696 9.275 57.205 9.479 57.45 9.785L58.29 10.851C58.531 11.157 58.61 11.704 58.467 12.066L57.97 13.326C57.824 13.688 57.392 14.032 57.005 14.089z" fill="white"></path><path d="M44.567 14.551C44.181 14.608 43.668 14.405 43.426 14.099L42.482 12.908C42.24 12.602 42.16 12.056 42.303 11.694L42.864 10.282C43.008 9.92 43.441 9.576 43.826 9.519L45.33 9.295C45.715 9.237 46.228 9.441 46.471 9.746L47.414 10.938C47.656 11.244 47.737 11.791 47.594 12.153L47.037 13.564C46.894 13.926 46.462 14.27 46.076 14.327z" fill="white"></path><path d="M35.592 14.826C35.206 14.883 34.693 14.68 34.452 14.374L33.953 13.741C33.712 13.435 33.63 12.888 33.773 12.525L34.068 11.771C34.211 11.408 34.642 11.065 35.028 11.009L35.831 10.892C36.217 10.836 36.731 11.039 36.974 11.344L37.481 11.981C37.724 12.286 37.804 12.831 37.66 13.193L37.36 13.943C37.215 14.305 36.782 14.648 36.396 14.705z" fill="white"></path><path d="M47.88 22.751C47.494 22.808 46.981 22.605 46.739 22.299L45.619 20.885C45.377 20.579 45.296 20.031 45.439 19.67L46.099 17.996C46.242 17.634 46.674 17.291 47.06 17.235L48.846 16.974C49.232 16.918 49.745 17.122 49.987 17.428L51.102 18.835C51.344 19.141 51.425 19.687 51.285 20.05L50.624 21.723C50.481 22.086 50.048 22.429 49.663 22.486z" fill="white"></path><path d="M58.154 24.47C57.767 24.527 57.255 24.324 57.011 24.018L55.823 22.525C55.581 22.22 55.5 21.673 55.639 21.311L56.338 19.538C56.481 19.176 56.913 18.832 57.299 18.776L59.19 18.497C59.579 18.44 60.09 18.644 60.335 18.949L61.523 20.444C61.765 20.749 61.845 21.296 61.703 21.658L61.001 23.429C60.855 23.791 60.424 24.135 60.038 24.191z" fill="white"></path><path d="M40.447 31.083C40.061 31.141 39.548 30.937 39.306 30.631L38.033 29.021C37.791 28.715 37.711 28.168 37.853 27.806L38.606 25.896C38.749 25.534 39.181 25.19 39.567 25.134L41.603 24.834C41.989 24.777 42.502 24.981 42.744 25.287L44.015 26.891C44.257 27.197 44.338 27.744 44.195 28.106L43.443 30.016C43.3 30.378 42.868 30.722 42.483 30.78z" fill="white"></path><path d="M37.979 22.192C37.594 22.25 37.08 22.046 36.838 21.741L36.04 20.734C35.798 20.429 35.717 19.882 35.86 19.52L36.336 18.318C36.48 17.955 36.912 17.612 37.297 17.554L38.572 17.364C38.957 17.306 39.47 17.51 39.712 17.816L40.512 18.829C40.754 19.135 40.834 19.682 40.69 20.044L40.215 21.239C40.071 21.601 39.638 21.945 39.253 22.002z" fill="white"></path><path d="M28.481 21.551C28.095 21.608 27.582 21.405 27.34 21.099L26.672 20.256C26.43 19.95 26.349 19.404 26.492 19.041L26.889 18.036C27.032 17.673 27.465 17.331 27.85 17.275L28.915 17.119C29.301 17.063 29.814 17.267 30.056 17.573L30.724 18.417C30.966 18.723 31.046 19.269 30.903 19.631L30.507 20.63C30.363 20.992 29.93 21.336 29.545 21.393z" fill="white"></path><path d="M21.894 21.578C21.508 21.635 20.994 21.432 20.751 21.127L20.389 20.673C20.146 20.368 20.065 19.823 20.208 19.461L20.422 18.921C20.565 18.559 20.998 18.215 21.383 18.158L21.962 18.072C22.348 18.014 22.86 18.218 23.101 18.525L23.458 18.979C23.699 19.286 23.779 19.833 23.635 20.195L23.423 20.733C23.279 21.096 22.847 21.439 22.461 21.495z" fill="white"></path><path d="M30.147 29.994C29.761 30.051 29.248 29.848 29.005 29.543L28.156 28.474C27.913 28.169 27.832 27.623 27.976 27.26L28.477 25.993C28.621 25.63 29.053 25.288 29.439 25.232L30.792 25.035C31.178 24.979 31.691 25.183 31.933 25.489L32.771 26.549C33.013 26.855 33.094 27.401 32.95 27.763L32.449 29.031C32.305 29.393 31.873 29.737 31.487 29.794z" fill="white"></path><path d="M21.481 29.385C21.095 29.441 20.581 29.238 20.338 28.933L19.614 28.023C19.371 27.718 19.291 27.172 19.435 26.81L19.868 25.724C20.012 25.362 20.446 25.019 20.831 24.963L21.975 24.795C22.361 24.738 22.875 24.941 23.118 25.247L23.844 26.159C24.087 26.464 24.168 27.01 24.024 27.372L23.594 28.455C23.45 28.817 23.017 29.16 22.632 29.216z" fill="white"></path><path d="M32.889 39.79C32.503 39.847 31.99 39.643 31.748 39.338L30.267 37.469C30.025 37.164 29.945 36.617 30.088 36.255L30.969 34.03C31.113 33.668 31.546 33.324 31.931 33.267L34.294 32.917C34.68 32.86 35.193 33.063 35.435 33.369L36.917 35.243C37.159 35.549 37.239 36.095 37.096 36.458L36.216 38.682C36.072 39.045 35.64 39.388 35.254 39.444z" fill="white"></path><path d="M64.746 44.952C64.359 45.009 63.848 44.806 63.605 44.5L61.822 42.245C61.581 41.939 61.5 41.392 61.642 41.03L62.697 38.353C62.84 37.991 63.271 37.647 63.658 37.591L66.507 37.173C66.893 37.116 67.406 37.32 67.649 37.626L69.432 39.882C69.673 40.188 69.754 40.734 69.612 41.097L68.557 43.767C68.414 44.13 67.983 44.473 67.596 44.53z" fill="white"></path><path d="M74.301 47.111C73.915 47.168 73.403 46.964 73.159 46.659L71.88 45.048C71.639 44.743 71.557 44.196 71.701 43.834L72.457 41.929C72.602 41.567 73.034 41.223 73.42 41.166L75.453 40.864C75.839 40.806 76.351 41.01 76.594 41.315L77.869 42.926C78.109 43.232 78.191 43.778 78.049 44.141L77.295 46.051C77.152 46.413 76.721 46.757 76.334 46.813z" fill="white"></path><path d="M83.629 48.246C83.243 48.303 82.731 48.1 82.486 47.794L81.294 46.292C81.053 45.987 80.971 45.441 81.115 45.079L81.826 43.287C81.971 42.925 82.402 42.582 82.789 42.525L84.691 42.246C85.077 42.189 85.587 42.393 85.833 42.699L87.025 44.206C87.267 44.512 87.347 45.058 87.205 45.42L86.494 47.204C86.349 47.566 85.917 47.909 85.531 47.966z" fill="white"></path><path d="M91.617 46.52C91.23 46.578 90.719 46.374 90.476 46.068L90.142 45.645C89.9 45.339 89.82 44.792 89.96 44.43L90.16 43.924C90.306 43.562 90.733 43.219 91.122 43.163L91.653 43.085C92.04 43.029 92.551 43.232 92.797 43.538L93.138 43.964C93.379 44.269 93.459 44.815 93.318 45.177L93.121 45.677C92.976 46.039 92.544 46.383 92.158 46.44z" fill="white"></path><path d="M9.636 39.804C9.251 39.862 8.738 39.659 8.496 39.353L8.454 39.3C8.212 38.994 8.132 38.448 8.275 38.085L8.301 38.02C8.444 37.657 8.877 37.314 9.262 37.258L9.326 37.249C9.712 37.192 10.226 37.395 10.469 37.7L10.513 37.756C10.756 38.061 10.837 38.607 10.694 38.969L10.67 39.03C10.526 39.392 10.093 39.736 9.708 39.794z" fill="white"></path><path d="M14.632 29.562C14.247 29.62 13.734 29.416 13.492 29.11L13.261 28.818C13.02 28.512 12.939 27.965 13.083 27.603L13.219 27.26C13.363 26.898 13.795 26.554 14.181 26.497L14.55 26.443C14.936 26.386 15.448 26.589 15.69 26.895L15.92 27.187C16.161 27.493 16.241 28.039 16.096 28.401L15.958 28.744C15.813 29.106 15.38 29.449 14.995 29.507z" fill="white"></path><path d="M23.18 38.713C22.794 38.77 22.281 38.567 22.038 38.261L21.018 36.976C20.775 36.67 20.695 36.124 20.838 35.762L21.443 34.233C21.587 33.871 22.02 33.527 22.405 33.471L24.021 33.232C24.407 33.175 24.92 33.378 25.163 33.683L26.183 34.968C26.426 35.273 26.507 35.819 26.363 36.181L25.758 37.71C25.614 38.073 25.182 38.416 24.796 38.473z" fill="white"></path><path d="M15.097 37.979C14.711 38.036 14.198 37.832 13.956 37.526L13.289 36.682C13.047 36.376 12.967 35.83 13.11 35.468L13.506 34.469C13.65 34.107 14.083 33.763 14.468 33.706L15.532 33.548C15.917 33.49 16.43 33.694 16.673 33.999L17.341 34.843C17.583 35.149 17.664 35.695 17.521 36.058L17.124 37.062C16.981 37.425 16.548 37.768 16.163 37.824z" fill="white"></path><path d="M26.749 47.721C26.363 47.778 25.85 47.574 25.609 47.268L24.427 45.769C24.186 45.463 24.105 44.916 24.248 44.554L24.948 42.783C25.091 42.42 25.524 42.077 25.909 42.02L27.8 41.741C28.186 41.684 28.699 41.887 28.941 42.193L30.122 43.686C30.364 43.992 30.445 44.539 30.302 44.901L29.6 46.679C29.457 47.041 29.025 47.385 28.639 47.441z" fill="white"></path><path d="M36.432 49.341C36.046 49.398 35.533 49.194 35.29 48.889L33.659 46.838C33.416 46.533 33.336 45.987 33.48 45.625L34.447 43.189C34.591 42.827 35.024 42.483 35.41 42.426L37.995 42.043C38.381 41.986 38.894 42.189 39.136 42.494L40.762 44.547C41.004 44.852 41.085 45.399 40.942 45.761L39.98 48.201C39.837 48.563 39.405 48.906 39.019 48.963z" fill="white"></path><path d="M46.915 51.305C46.529 51.362 46.016 51.157 45.773 50.852L44.018 48.644C43.775 48.338 43.694 47.792 43.838 47.43L44.878 44.805C45.021 44.443 45.454 44.099 45.84 44.042L48.636 43.627C49.022 43.57 49.535 43.773 49.778 44.078L51.528 46.286C51.77 46.591 51.852 47.138 51.712 47.501L50.679 50.132C50.535 50.495 50.103 50.838 49.717 50.897z" fill="white"></path><path d="M57.926 53.258C57.54 53.315 57.028 53.112 56.784 52.807L54.894 50.431C54.652 50.126 54.572 49.579 54.712 49.217L55.831 46.388C55.977 46.025 56.407 45.682 56.793 45.626L59.802 45.183C60.187 45.126 60.698 45.33 60.943 45.636L62.826 48.013C63.066 48.319 63.148 48.865 63.005 49.227L61.885 52.058C61.741 52.417 61.309 52.761 60.923 52.82z" fill="white"></path><path d="M68.842 55.148C68.456 55.205 67.944 55.001 67.7 54.695L66.167 52.761C65.925 52.453 65.844 51.906 65.986 51.544L66.892 49.253C67.037 48.89 67.466 48.547 67.855 48.49L70.295 48.127C70.683 48.07 71.192 48.273 71.439 48.578L72.972 50.513C73.212 50.82 73.293 51.367 73.152 51.728L72.245 54.027C72.101 54.39 71.669 54.732 71.283 54.79z" fill="white"></path><path d="M78.918 56.584C78.532 56.641 78.02 56.438 77.775 56.132L76.504 54.528C76.264 54.223 76.182 53.675 76.322 53.313L77.075 51.412C77.221 51.05 77.65 50.706 78.037 50.647L80.066 50.351C80.453 50.294 80.963 50.497 81.209 50.804L82.484 52.408C82.726 52.715 82.806 53.261 82.664 53.623L81.9 55.525C81.754 55.886 81.324 56.23 80.937 56.288z" fill="white"></path><path d="M88.305 56.025C87.919 56.083 87.409 55.879 87.164 55.574L86.521 54.762C86.279 54.456 86.199 53.909 86.338 53.547L86.72 52.59C86.863 52.229 87.292 51.884 87.681 51.826L88.703 51.674C89.089 51.616 89.6 51.82 89.847 52.125L90.491 52.937C90.732 53.243 90.812 53.789 90.67 54.15L90.287 55.111C90.142 55.472 89.71 55.816 89.324 55.874z" fill="white"></path><path d="M89.375 65.178C88.988 65.235 88.477 65.032 88.232 64.727L87.58 63.91C87.337 63.603 87.256 63.056 87.398 62.695L87.782 61.724C87.926 61.361 88.357 61.017 88.744 60.958L89.783 60.806C90.169 60.747 90.681 60.952 90.925 61.256L91.573 62.073C91.814 62.379 91.896 62.927 91.753 63.288L91.368 64.261C91.224 64.622 90.792 64.968 90.406 65.025z" fill="white"></path><path d="M81.986 65.5C81.601 65.557 81.088 65.354 80.845 65.049L79.824 63.764C79.582 63.459 79.502 62.913 79.644 62.551L80.248 61.031C80.393 60.67 80.825 60.327 81.211 60.269L82.826 60.033C83.212 59.976 83.724 60.179 83.968 60.484L84.985 61.765C85.227 62.072 85.309 62.619 85.167 62.98L84.565 64.497C84.42 64.859 83.989 65.203 83.604 65.26z" fill="white"></path><path d="M73.039 65.525C72.652 65.582 72.141 65.379 71.896 65.074L70.584 63.429C70.341 63.121 70.263 62.575 70.403 62.213L71.176 60.271C71.322 59.909 71.753 59.566 72.139 59.505L74.215 59.194C74.6 59.135 75.113 59.34 75.356 59.645L76.658 61.291C76.897 61.6 76.977 62.145 76.837 62.508L76.066 64.453C75.921 64.812 75.492 65.159 75.105 65.219z" fill="white"></path><path d="M62.279 63.256C61.894 63.313 61.381 63.11 61.138 62.805L59.511 60.758C59.269 60.453 59.189 59.906 59.33 59.545L60.291 57.123C60.437 56.762 60.868 56.418 61.254 56.361L63.826 55.982C64.212 55.923 64.723 56.128 64.97 56.433L66.587 58.474C66.829 58.779 66.91 59.326 66.771 59.687L65.814 62.109C65.668 62.472 65.238 62.816 64.853 62.873z" fill="white"></path><path d="M51.061 60.678C50.676 60.735 50.165 60.532 49.92 60.227L48.058 57.873C47.816 57.566 47.736 57.019 47.879 56.656L48.983 53.87C49.127 53.508 49.56 53.164 49.945 53.105L52.913 52.667C53.299 52.608 53.812 52.813 54.055 53.119L55.916 55.465C56.158 55.773 56.238 56.319 56.096 56.681L54.992 59.478C54.847 59.839 54.416 60.185 54.029 60.243z" fill="white"></path><path d="M39.555 60.447C39.169 60.504 38.656 60.301 38.413 59.995L36.282 57.308C36.04 56.999 35.959 56.454 36.102 56.093L37.36 52.908C37.504 52.546 37.936 52.202 38.322 52.143L41.708 51.641C42.094 51.583 42.608 51.787 42.851 52.092L44.987 54.774C45.23 55.083 45.311 55.628 45.168 55.991L43.904 59.179C43.761 59.54 43.328 59.884 42.942 59.941z" fill="white"></path><path d="M30.843 55.572C30.458 55.631 29.944 55.427 29.702 55.122L28.502 53.607C28.26 53.302 28.18 52.753 28.323 52.392L29.033 50.601C29.177 50.236 29.61 49.893 29.995 49.837L31.906 49.557C32.292 49.501 32.805 49.704 33.047 50.01L34.24 51.514C34.482 51.821 34.562 52.368 34.419 52.729L33.709 54.52C33.565 54.883 33.132 55.227 32.747 55.287z" fill="white"></path><path d="M17.866 47.334C17.48 47.391 16.967 47.188 16.724 46.883L15.794 45.709C15.552 45.404 15.471 44.857 15.614 44.495L16.162 43.11C16.306 42.748 16.738 42.404 17.124 42.347L18.601 42.129C18.987 42.072 19.5 42.275 19.743 42.58L20.674 43.753C20.916 44.058 20.996 44.605 20.852 44.966L20.3 46.353C20.156 46.715 19.722 47.058 19.337 47.115z" fill="white"></path><path d="M10.571 47.392C10.186 47.45 9.672 47.247 9.43 46.942L8.926 46.306C8.684 46.001 8.603 45.454 8.747 45.092L9.045 44.343C9.189 43.981 9.622 43.637 10.007 43.579L10.802 43.46C11.187 43.402 11.701 43.605 11.943 43.91L12.447 44.546C12.689 44.851 12.77 45.398 12.626 45.76L12.328 46.509C12.184 46.871 11.751 47.215 11.366 47.273z" fill="white"></path><path d="M22.497 57.299C22.111 57.356 21.598 57.153 21.356 56.848L19.914 55.028C19.672 54.721 19.591 54.174 19.735 53.813L20.591 51.647C20.735 51.287 21.167 50.94 21.553 50.882L23.85 50.54C24.236 50.483 24.75 50.686 24.992 50.99L26.447 52.818C26.689 53.124 26.77 53.67 26.626 54.031L25.764 56.199C25.62 56.56 25.187 56.904 24.801 56.961z" fill="white"></path><path d="M30.265 65.918C29.879 65.975 29.366 65.772 29.123 65.467L27.295 63.166C27.052 62.861 26.972 62.314 27.115 61.952L28.2 59.216C28.344 58.854 28.777 58.51 29.162 58.453L32.064 58.023C32.45 57.964 32.963 58.169 33.206 58.474L35.04 60.783C35.283 61.088 35.363 61.635 35.219 61.996L34.135 64.728C33.991 65.086 33.558 65.433 33.172 65.49z" fill="white"></path><path d="M45.742 67.336C45.356 67.393 44.843 67.19 44.6 66.885L43.236 65.166C42.994 64.861 42.914 64.314 43.058 63.953L43.867 61.92C44.011 61.559 44.445 61.215 44.83 61.158L46.996 60.838C47.382 60.781 47.895 60.984 48.138 61.29L49.495 63.001C49.737 63.307 49.818 63.854 49.674 64.215L48.863 66.257C48.719 66.619 48.286 66.962 47.901 67.02z" fill="white"></path><path d="M37.521 72.689C37.135 72.747 36.622 72.543 36.379 72.238L34.728 70.158C34.486 69.853 34.405 69.306 34.548 68.943L35.523 66.476C35.667 66.115 36.099 65.771 36.485 65.711L39.11 65.321C39.496 65.262 40.009 65.467 40.251 65.772L41.903 67.856C42.145 68.164 42.225 68.71 42.081 69.071L41.102 71.54C40.958 71.899 40.525 72.244 40.139 72.304z" fill="white"></path><path d="M55.109 70.663C54.722 70.721 54.21 70.517 53.964 70.212L52.511 68.376C52.269 68.07 52.189 67.523 52.33 67.161L53.188 64.988C53.334 64.627 53.766 64.283 54.153 64.224L56.465 63.878C56.853 63.817 57.364 64.024 57.609 64.329L59.064 66.165C59.306 66.474 59.388 67.019 59.246 67.38L58.389 69.554C58.245 69.914 57.813 70.261 57.428 70.318z" fill="white"></path><path d="M65.691 73.673C65.306 73.731 64.793 73.527 64.547 73.223L62.985 71.262C62.745 70.956 62.664 70.409 62.805 70.047L63.725 67.725C63.871 67.362 64.301 67.02 64.688 66.962L67.16 66.6C67.546 66.542 68.058 66.746 68.305 67.051L69.864 69.01C70.106 69.315 70.188 69.862 70.045 70.223L69.125 72.541C68.979 72.902 68.548 73.246 68.162 73.305z" fill="white"></path><path d="M76.223 74.8C75.837 74.858 75.327 74.654 75.082 74.35L74.062 73.061C73.82 72.755 73.74 72.208 73.88 71.846L74.484 70.323C74.629 69.964 75.06 69.621 75.447 69.561L77.068 69.323C77.454 69.266 77.964 69.469 78.21 69.774L79.231 71.059C79.473 71.364 79.553 71.913 79.413 72.272L78.809 73.795C78.663 74.156 78.231 74.5 77.844 74.559z" fill="white"></path><path d="M84.297 73.536C83.911 73.594 83.399 73.39 83.156 73.085L82.494 72.245C82.252 71.939 82.172 71.392 82.314 71.029L82.707 70.034C82.85 69.672 83.282 69.328 83.668 69.271L84.732 69.113C85.118 69.056 85.628 69.259 85.873 69.566L86.535 70.406C86.777 70.713 86.857 71.26 86.714 71.622L86.322 72.611C86.179 72.974 85.747 73.318 85.361 73.376z" fill="white"></path><path d="M68.172 83.336C67.786 83.393 67.274 83.19 67.031 82.883L65.574 81.037C65.332 80.73 65.252 80.183 65.394 79.82L66.25 77.642C66.396 77.281 66.825 76.937 67.211 76.877L69.541 76.533C69.929 76.473 70.438 76.679 70.685 76.983L72.146 78.827C72.388 79.136 72.466 79.681 72.325 80.041L71.459 82.229C71.314 82.587 70.882 82.934 70.496 82.991z" fill="white"></path><path d="M77.213 81.197C76.827 81.255 76.315 81.051 76.072 80.746L75.964 80.605C75.723 80.296 75.643 79.751 75.783 79.388L75.845 79.226C75.986 78.863 76.415 78.519 76.804 78.458L76.99 78.433C77.376 78.373 77.888 78.579 78.129 78.886L78.238 79.025C78.478 79.332 78.556 79.879 78.414 80.241L78.348 80.408C78.203 80.769 77.77 81.113 77.384 81.172z" fill="white"></path><path d="M61.768 89.866C61.382 89.923 60.872 89.719 60.626 89.413L59.57 88.083C59.329 87.777 59.248 87.23 59.39 86.868L60.017 85.286C60.162 84.924 60.591 84.58 60.98 84.521L62.662 84.273C63.048 84.212 63.56 84.419 63.805 84.722L64.867 86.06C65.107 86.366 65.187 86.912 65.045 87.273L64.414 88.859C64.268 89.22 63.836 89.562 63.45 89.62z" fill="white"></path><path d="M57.359 81.186C56.974 81.245 56.462 81.04 56.216 80.733L54.406 78.442C54.164 78.135 54.084 77.588 54.225 77.227L55.303 74.509C55.449 74.147 55.878 73.803 56.264 73.745L59.153 73.316C59.54 73.256 60.049 73.462 60.295 73.767L62.107 76.062C62.349 76.368 62.429 76.915 62.289 77.277L61.223 79.993C61.078 80.355 60.647 80.699 60.262 80.756z" fill="white"></path><path d="M47.152 76.859C46.766 76.918 46.253 76.713 46.01 76.41L44.647 74.693C44.405 74.388 44.324 73.839 44.466 73.478L45.272 71.435C45.415 71.074 45.847 70.73 46.233 70.671L48.4 70.355C48.786 70.296 49.299 70.501 49.542 70.808L50.904 72.525C51.146 72.832 51.226 73.379 51.084 73.741L50.281 75.773C50.138 76.136 49.705 76.48 49.32 76.538z" fill="white"></path><path d="M37.941 81.934C37.555 81.991 37.042 81.788 36.799 81.483L35.239 79.516C34.997 79.21 34.916 78.664 35.06 78.303L35.986 75.971C36.13 75.61 36.563 75.266 36.949 75.208L39.431 74.839C39.817 74.781 40.33 74.985 40.572 75.29L42.126 77.257C42.368 77.563 42.448 78.11 42.305 78.473L41.383 80.807C41.24 81.169 40.807 81.512 40.422 81.571z" fill="white"></path><path d="M48.91 85.777C48.524 85.835 48.011 85.631 47.768 85.326L46.576 83.824C46.334 83.519 46.253 82.972 46.397 82.611L47.106 80.826C47.25 80.464 47.683 80.121 48.069 80.064L49.961 79.785C50.347 79.728 50.859 79.931 51.104 80.236L52.295 81.738C52.537 82.043 52.618 82.59 52.477 82.952L51.776 84.736C51.632 85.099 51.203 85.441 50.815 85.499z" fill="white"></path><path d="M54.959 91.357C54.572 91.416 54.061 91.211 53.816 90.908L53.228 90.168C52.986 89.863 52.904 89.316 53.043 88.953L53.392 88.07C53.536 87.707 53.964 87.363 54.353 87.306L55.291 87.162C55.679 87.102 56.188 87.308 56.435 87.614L57.025 88.356C57.267 88.665 57.347 89.21 57.204 89.574L56.855 90.453C56.709 90.813 56.277 91.159 55.892 91.22z" fill="white"></path><path d="M48.162 91.462C47.777 91.522 47.263 91.318 47.021 91.014L46.919 90.885C46.677 90.579 46.596 90.032 46.74 89.67L46.801 89.52C46.945 89.16 47.378 88.813 47.763 88.754L47.93 88.729C48.315 88.671 48.828 88.875 49.07 89.18L49.169 89.305C49.41 89.612 49.49 90.159 49.346 90.52L49.285 90.674C49.141 91.035 48.708 91.38 48.323 91.44z" fill="white"></path><path d="M40.25 90.764C39.865 90.821 39.352 90.618 39.11 90.313L37.746 88.587C37.504 88.281 37.424 87.734 37.567 87.372L38.371 85.339C38.515 84.977 38.947 84.633 39.333 84.575L41.5 84.253C41.886 84.195 42.399 84.399 42.642 84.703L44.005 86.422C44.247 86.727 44.328 87.274 44.185 87.637L43.38 89.676C43.237 90.038 42.804 90.382 42.419 90.44z" fill="white"></path><path d="M29.562 86.156C29.177 86.215 28.664 86.011 28.422 85.706L27.314 84.305C27.072 83.998 26.992 83.451 27.135 83.089L27.788 81.438C27.931 81.078 28.364 80.733 28.749 80.675L30.515 80.415C30.901 80.357 31.414 80.562 31.657 80.867L32.764 82.262C33.006 82.567 33.087 83.114 32.944 83.477L32.29 85.13C32.147 85.492 31.714 85.836 31.329 85.895z" fill="white"></path><path d="M28.192 75.458C27.806 75.516 27.293 75.312 27.05 75.008L25.584 73.164C25.341 72.859 25.261 72.312 25.404 71.95L26.272 69.763C26.416 69.402 26.849 69.058 27.234 68.998L29.557 68.651C29.943 68.594 30.456 68.797 30.698 69.104L32.155 70.946C32.397 71.253 32.478 71.801 32.335 72.162L31.471 74.349C31.328 74.709 30.895 75.056 30.51 75.113z" fill="white"></path><path d="M22.484 79.715C22.098 79.772 21.585 79.569 21.343 79.264L20.44 78.124C20.198 77.818 20.118 77.271 20.261 76.909L20.795 75.562C20.939 75.201 21.372 74.857 21.757 74.802L23.188 74.593C23.574 74.534 24.087 74.738 24.33 75.044L25.227 76.177C25.469 76.484 25.551 77.031 25.408 77.392L24.878 78.74C24.735 79.103 24.303 79.447 23.918 79.504z" fill="white"></path><path d="M15.911 75.689C15.525 75.746 15.013 75.542 14.771 75.234L14.272 74.601C14.03 74.292 13.951 73.747 14.094 73.386L14.391 72.636C14.535 72.275 14.968 71.931 15.353 71.871L16.149 71.752C16.535 71.692 17.048 71.898 17.289 72.205L17.788 72.836C18.029 73.146 18.111 73.69 17.968 74.056L17.673 74.81C17.53 75.17 17.099 75.515 16.713 75.572z" fill="white"></path><path d="M21.107 67.63C20.721 67.688 20.208 67.484 19.966 67.18L18.549 65.385C18.307 65.079 18.227 64.531 18.37 64.17L19.213 62.044C19.356 61.682 19.789 61.339 20.175 61.281L22.433 60.95C22.819 60.892 23.332 61.097 23.575 61.402L24.996 63.191C25.239 63.496 25.319 64.043 25.176 64.404L24.334 66.529C24.19 66.892 23.757 67.236 23.372 67.294z" fill="white"></path><path d="M15.242 57.396C14.856 57.454 14.343 57.25 14.1 56.945L13.348 55.997C13.106 55.691 13.025 55.144 13.169 54.781L13.617 53.652C13.761 53.291 14.194 52.947 14.579 52.89L15.781 52.712C16.167 52.653 16.68 52.858 16.921 53.166L17.67 54.11C17.911 54.42 17.992 54.965 17.849 55.329L17.406 56.45C17.263 56.809 16.83 57.155 16.445 57.214z" fill="white"></path><path d="M9.194 58.27C8.808 58.33 8.295 58.124 8.053 57.819L7.62 57.27C7.378 56.964 7.298 56.418 7.442 56.057L7.698 55.411C7.842 55.049 8.276 54.705 8.661 54.646L9.353 54.542C9.738 54.482 10.251 54.688 10.493 54.992L10.926 55.541C11.168 55.85 11.249 56.395 11.106 56.756L10.851 57.402C10.708 57.763 10.276 58.107 9.89 58.167z" fill="white"></path><path d="M13.281 66.947C12.895 67.006 12.381 66.802 12.139 66.498L11.413 65.586C11.171 65.281 11.09 64.734 11.235 64.373L11.668 63.289C11.813 62.928 12.246 62.584 12.631 62.525L13.775 62.355C14.16 62.294 14.674 62.501 14.916 62.804L15.643 63.722C15.885 64.027 15.966 64.572 15.822 64.935L15.393 66.013C15.249 66.373 14.816 66.718 14.43 66.777z" fill="white"></path></svg></g></svg></g></svg></g></svg></g></svg></g><g></g></svg></g><defs><mask></mask></defs></svg><rect width="95.481" height="91.22977815316585" fill="black" stroke="none" visibility="hidden"></rect></g></mask><linearGradient x1="0" x2="1" y1="0.578" y2="0.595" id="ce963807-7ebd-470b-87a5-710e0a169ab6"><stop stop-color="#6ee2f5" offset="0"></stop><stop stop-color="#6454f0" offset="1"></stop></linearGradient><rect width="95.481" height="91.22977815316585" fill="url(#ce963807-7ebd-470b-87a5-710e0a169ab6)" mask="url(#f1884ea9-aa1d-4a82-9481-81dcb8409017)" data-fill-palette-color="accent"></rect></svg><rect width="95.481" height="91.22977815316585" fill="none" stroke="none" visibility="hidden"></rect></g></svg></g></svg>